<svg xmlns="http://www.w3.org/2000/svg" width="27" height="24" viewBox="0 0 27 24">
    <g fill="none" fill-rule="evenodd">
        <g>
            <g>
                <path fill="#8AAB3E" d="M20.464 20.919c-.797-.003-1.468-.553-1.658-1.29h-.053l-.003-.423c0-.946.769-1.715 1.714-1.715s1.713.77 1.713 1.715c0 .944-.768 1.713-1.713 1.713m.003-4.321c-1.438 0-2.609 1.17-2.609 2.608 0 1.437 1.17 2.607 2.61 2.607 1.433-.002 2.604-1.173 2.607-2.608 0-1.438-1.17-2.607-2.608-2.607" transform="translate(-1191 -31) translate(1192 32)"/>
                <path stroke="#8AAB3E" stroke-width=".75" d="M20.464 20.919c-.797-.003-1.468-.553-1.658-1.29h-.053l-.003-.423c0-.946.769-1.715 1.714-1.715s1.713.77 1.713 1.715c0 .944-.768 1.713-1.713 1.713zm.003-4.321c-1.438 0-2.609 1.17-2.609 2.608 0 1.437 1.17 2.607 2.61 2.607 1.433-.002 2.604-1.173 2.607-2.608 0-1.438-1.17-2.607-2.608-2.607z" transform="translate(-1191 -31) translate(1192 32)"/>
                <path fill="#8AAB3E" d="M3.376.894h.002c.6 0 1.117.408 1.256.993L7.2 12.595c.237.987 1.111 1.677 2.126 1.677h11.768c1.01 0 1.883-.684 2.125-1.663L24.8 6.194c.213-.86-.314-1.734-1.174-1.947-.099-.024-.199-.038-.299-.044h-8.95c-.246 0-.447.2-.447.447s.2.447.448.447h8.86c.177.004.36.064.499.196.14.13.217.308.223.498l.001.06-.023.136-1.591 6.408c-.143.578-.659.983-1.255.983H9.324c-.601 0-1.117-.408-1.257-.992L5.503 1.677C5.266.69 4.392.001 3.376 0H.446C.202 0 0 .2 0 .448c0 .246.2.446.447.446h2.93z" transform="translate(-1191 -31) translate(1192 32)"/>
                <path stroke="#8AAB3E" stroke-width=".75" d="M3.376.894h.002c.6 0 1.117.408 1.256.993L7.2 12.595c.237.987 1.111 1.677 2.126 1.677h11.768c1.01 0 1.883-.684 2.125-1.663L24.8 6.194c.213-.86-.314-1.734-1.174-1.947-.099-.024-.199-.038-.299-.044h-8.95c-.246 0-.447.2-.447.447s.2.447.448.447h8.86c.177.004.36.064.499.196.14.13.217.308.223.498l.001.06-.023.136-1.591 6.408c-.143.578-.659.983-1.255.983H9.324c-.601 0-1.117-.408-1.257-.992L5.503 1.677C5.266.69 4.392.001 3.376 0H.446C.202 0 0 .2 0 .448c0 .246.2.446.447.446h2.93z" transform="translate(-1191 -31) translate(1192 32)"/>
                <path fill="#8AAB3E" d="M9.207 20.919c-.943-.002-1.711-.77-1.714-1.713 0-.946.769-1.715 1.714-1.715s1.713.77 1.713 1.715c0 .944-.768 1.713-1.713 1.713m.002-4.321c-1.437 0-2.608 1.17-2.608 2.608 0 1.436 1.17 2.607 2.607 2.607 1.436 0 2.607-1.171 2.61-2.608 0-1.438-1.17-2.607-2.609-2.607" transform="translate(-1191 -31) translate(1192 32)"/>
                <path stroke="#8AAB3E" stroke-width=".75" d="M9.207 20.919c-.943-.002-1.711-.77-1.714-1.713h0c0-.946.769-1.715 1.714-1.715s1.713.77 1.713 1.715c0 .944-.768 1.713-1.713 1.713zm.002-4.321c-1.437 0-2.608 1.17-2.608 2.608 0 1.436 1.17 2.607 2.607 2.607 1.436 0 2.607-1.171 2.61-2.608 0-1.438-1.17-2.607-2.609-2.607z" transform="translate(-1191 -31) translate(1192 32)"/>
            </g>
        </g>
    </g>
</svg>
